<svg xmlns="http://www.w3.org/2000/svg" width="1200" height="760" viewBox="0 0 1200 760" role="img" aria-label="Cooling Block Concept">
  <defs>
    <linearGradient id="g" x1="0" x2="1" y1="0" y2="1"><stop stop-color="#050816"/><stop offset="0.5" stop-color="#0d1328"/><stop offset="1" stop-color="#020617"/></linearGradient>
    <radialGradient id="r" cx="65%" cy="35%" r="60%"><stop stop-color="#38bdf8" stop-opacity=".42"/><stop offset=".6" stop-color="#f97316" stop-opacity=".18"/><stop offset="1" stop-color="#050816" stop-opacity="0"/></radialGradient>
    <filter id="glow"><feGaussianBlur stdDeviation="6" result="b"/><feMerge><feMergeNode in="b"/><feMergeNode in="SourceGraphic"/></feMerge></filter>
  </defs>
  <rect width="1200" height="760" rx="42" fill="url(#g)"/>
  <rect width="1200" height="760" rx="42" fill="url(#r)"/>
  <g opacity=".20" stroke="#8ea2ff" stroke-width="1">
    <path d="M0 80H1200"/><path d="M0 160H1200"/><path d="M0 240H1200"/><path d="M0 320H1200"/><path d="M0 400H1200"/><path d="M0 480H1200"/><path d="M0 560H1200"/><path d="M0 640H1200"/><path d="M0 720H1200"/>
    <path d="M80 0V760"/><path d="M160 0V760"/><path d="M240 0V760"/><path d="M320 0V760"/><path d="M400 0V760"/><path d="M480 0V760"/><path d="M560 0V760"/><path d="M640 0V760"/><path d="M720 0V760"/><path d="M800 0V760"/><path d="M880 0V760"/><path d="M960 0V760"/><path d="M1040 0V760"/><path d="M1120 0V760"/>
  </g>
  <g transform="translate(710 180)" opacity=".92" filter="url(#glow)">
    <circle cx="120" cy="120" r="94" fill="none" stroke="#38bdf8" stroke-width="10" stroke-dasharray="18 20"/>
    <circle cx="120" cy="120" r="44" fill="none" stroke="#f97316" stroke-width="12"/>
    <circle cx="120" cy="120" r="14" fill="#38bdf8"/>
    <path d="M120 20 L120 70 M120 170 L120 220 M20 120 L70 120 M170 120 L220 120" stroke="#fff" stroke-opacity=".65" stroke-width="8" stroke-linecap="round"/>
  </g>
  <g transform="translate(92 112)">
    <rect x="0" y="0" width="470" height="96" rx="18" fill="rgba(255,255,255,.06)" stroke="#38bdf8" stroke-opacity=".38"/>
    <path d="M42 50h48l24-24 36 48 26-30h86" fill="none" stroke="#38bdf8" stroke-width="8" stroke-linecap="round" stroke-linejoin="round"/>
  </g>
  <g transform="translate(92 300)" fill="none" stroke="#f97316" stroke-width="8" stroke-linecap="round" opacity=".78">
    <path d="M0 0h160v74h120v74h150"/>
    <circle cx="160" cy="74" r="22"/><circle cx="430" cy="148" r="22"/>
  </g>
  <text x="92" y="548" font-family="Arial, Helvetica, sans-serif" font-size="58" font-weight="800" fill="#f8fafc">Cooling Block Concept</text>
  <text x="92" y="612" font-family="Arial, Helvetica, sans-serif" font-size="28" font-weight="700" fill="#b9c0d7">Thermal and mechanical design</text>
  <text x="92" y="676" font-family="Arial, Helvetica, sans-serif" font-size="22" font-weight="700" fill="#38bdf8">Public-safe engineering media placeholder</text>
</svg>